<svg width="22" height="19" viewBox="0 0 22 19" fill="none" xmlns="http://www.w3.org/2000/svg">
<path fill-rule="evenodd" clip-rule="evenodd" d="M11.1816 2.14924C14.0583 4.14351 14.6812 7.9723 12.6151 10.6945C10.549 13.4167 6.54737 14.0396 3.67068 12.0453C0.793999 10.051 0.171134 6.22223 2.23724 3.50003C4.30335 0.777828 8.30494 0.154968 11.1816 2.14924ZM11.7862 1.35269C15.1058 3.65404 15.8449 8.09159 13.4369 11.2642C13.4087 11.3014 13.3802 11.3382 13.3513 11.3747C13.355 11.3772 13.3586 11.3796 13.3622 11.3821L21.5809 17.0798C21.8854 17.2908 21.9506 17.7011 21.7267 17.9962C21.5027 18.2912 21.0744 18.3594 20.77 18.1483L12.5512 12.4506C12.5053 12.4188 12.4648 12.3825 12.43 12.3426C9.88256 14.5669 5.96848 14.8539 3.06611 12.8418C-0.253528 10.5405 -0.992571 6.10293 1.41541 2.93029C3.8234 -0.242348 8.46656 -0.948665 11.7862 1.35269Z" fill="#575757"/>
</svg>
